<svg id="圖層_1" data-name="圖層 1" xmlns="http://www.w3.org/2000/svg" viewBox="0 0 700 500"><defs><style>.cls-1,.cls-10,.cls-8{fill:none;}.cls-17,.cls-2,.cls-3,.cls-6,.cls-7,.cls-9{isolation:isolate;}.cls-17,.cls-3,.cls-9{font-size:16px;}.cls-17,.cls-3,.cls-7,.cls-9{fill:#66605c;}.cls-3{font-family:Helvetica-Oblique, Helvetica;}.cls-4{letter-spacing:-0.02em;}.cls-5{fill:#e6d9ce;}.cls-6{font-size:28px;}.cls-11,.cls-17,.cls-6,.cls-7{font-family:PingFangSC-Regular-GBpc-EUC-H, PingFang SC;}.cls-7{font-size:18px;}.cls-8{stroke:#e6d9ce;}.cls-9{font-family:Helvetica, Helvetica;}.cls-10{stroke:#ccc1b7;}.cls-12{fill:#1e558c;}.cls-13{fill:#94d2e6;}.cls-14{fill:#1e8fcc;}.cls-15{fill:#b3325d;}.cls-16{fill:#ff75a3;}</style></defs><title>工作區域 1</title><rect id="background" class="cls-1" width="700" height="500"/><rect id="hat" width="60" height="4"/><g id="copyright" class="cls-2"><text class="cls-3" transform="translate(0 497.46)">© F<tspan class="cls-4" x="26.01" y="0">T</tspan></text></g><path class="cls-5" d="M695,485v10H685Z"/><g id="title" class="cls-2"><text class="cls-6" transform="translate(0 37.16)">北美为台积电的最大市场</text></g><g id="subtitle" class="cls-2"><text class="cls-7" transform="translate(2 66.12)">季度净收入按地域分布</text></g><line id="yTick" class="cls-8" x1="666.03" y1="412.97" x2="25" y2="412.97"/><g id="yLabel" class="cls-2"><text class="cls-9" transform="translate(683.13 418.65)">0</text></g><line id="yTick-2" data-name="yTick" class="cls-8" x1="666.03" y1="351.13" x2="25" y2="351.13"/><g id="yLabel-2" data-name="yLabel" class="cls-2"><text class="cls-9" transform="translate(675.23 356.8)">20</text></g><line id="yTick-3" data-name="yTick" class="cls-8" x1="666.03" y1="289.28" x2="25" y2="289.28"/><g id="yLabel-3" data-name="yLabel" class="cls-2"><text class="cls-9" transform="translate(676.23 294.96)">40</text></g><line id="yTick-4" data-name="yTick" class="cls-8" x1="666.03" y1="227.44" x2="25" y2="227.44"/><g id="yLabel-4" data-name="yLabel" class="cls-2"><text class="cls-9" transform="translate(676.23 233.12)">60</text></g><line id="yTick-5" data-name="yTick" class="cls-8" x1="666.03" y1="165.59" x2="25" y2="165.59"/><g id="yLabel-5" data-name="yLabel" class="cls-2"><text class="cls-9" transform="translate(675.23 171.27)">80</text></g><line id="yTick-6" data-name="yTick" class="cls-8" x1="666.03" y1="103.75" x2="25" y2="103.75"/><g id="yLabel-6" data-name="yLabel" class="cls-2"><text class="cls-9" transform="translate(666.34 109.43)">100</text></g><line id="baseline" class="cls-10" x1="25" y1="412.97" x2="666.03" y2="412.97"/><line id="xTick" class="cls-10" x1="53.11" y1="412.97" x2="53.11" y2="424.97"/><g id="xLabel" class="cls-2"><text class="cls-9" transform="translate(14.64 441.65)">2018<tspan class="cls-11" x="35.59" y="0">年</tspan><tspan x="51.59" y="0">Q1</tspan></text></g><line id="xTick-2" data-name="xTick" class="cls-10" x1="111.59" y1="412.97" x2="111.59" y2="424.97"/><g id="xLabel-2" data-name="xLabel" class="cls-2"><text class="cls-9" transform="translate(83.12 441.65)"><tspan xml:space="preserve">    Q2</tspan></text></g><line id="xTick-3" data-name="xTick" class="cls-10" x1="170.07" y1="412.97" x2="170.07" y2="424.97"/><g id="xLabel-3" data-name="xLabel" class="cls-2"><text class="cls-9" transform="translate(141.6 441.65)"><tspan xml:space="preserve">    Q3</tspan></text></g><line id="xTick-4" data-name="xTick" class="cls-10" x1="228.55" y1="412.97" x2="228.55" y2="424.97"/><g id="xLabel-4" data-name="xLabel" class="cls-2"><text class="cls-9" transform="translate(197.08 441.65)"><tspan xml:space="preserve">    Q4</tspan></text></g><line id="xTick-5" data-name="xTick" class="cls-10" x1="287.03" y1="412.97" x2="287.03" y2="424.97"/><g id="xLabel-5" data-name="xLabel" class="cls-2"><text class="cls-9" transform="translate(250.57 441.65)">2019<tspan class="cls-11" x="35.59" y="0">年</tspan><tspan x="51.59" y="0">Q1</tspan></text></g><line id="xTick-6" data-name="xTick" class="cls-10" x1="345.52" y1="412.97" x2="345.52" y2="424.97"/><g id="xLabel-6" data-name="xLabel" class="cls-2"><text class="cls-9" transform="translate(317.05 441.65)"><tspan xml:space="preserve">    Q2</tspan></text></g><line id="xTick-7" data-name="xTick" class="cls-10" x1="404" y1="412.97" x2="404" y2="424.97"/><g id="xLabel-7" data-name="xLabel" class="cls-2"><text class="cls-9" transform="translate(375.53 441.65)"><tspan xml:space="preserve">    Q3</tspan></text></g><line id="xTick-8" data-name="xTick" class="cls-10" x1="462.48" y1="412.97" x2="462.48" y2="424.97"/><g id="xLabel-8" data-name="xLabel" class="cls-2"><text class="cls-9" transform="translate(434.01 441.65)"><tspan xml:space="preserve">    Q4</tspan></text></g><line id="xTick-9" data-name="xTick" class="cls-10" x1="520.96" y1="412.97" x2="520.96" y2="424.97"/><g id="xLabel-9" data-name="xLabel" class="cls-2"><text class="cls-9" transform="translate(481.49 441.65)">2020<tspan class="cls-11" x="35.59" y="0">年</tspan><tspan x="51.59" y="0">Q1</tspan></text></g><line id="xTick-10" data-name="xTick" class="cls-10" x1="579.44" y1="412.97" x2="579.44" y2="424.97"/><g id="xLabel-10" data-name="xLabel" class="cls-2"><text class="cls-9" transform="translate(551.97 441.65)"><tspan xml:space="preserve">    Q2</tspan></text></g><line id="xTick-11" data-name="xTick" class="cls-10" x1="637.92" y1="412.97" x2="637.92" y2="424.97"/><g id="xLabel-11" data-name="xLabel" class="cls-2"><text class="cls-9" transform="translate(609.45 441.65)"><tspan xml:space="preserve">    Q3</tspan></text></g><path class="cls-12" d="M29.8,413V246H76.42V413Z"/><path class="cls-12" d="M88.28,413V246H134.9V413Z"/><path class="cls-12" d="M146.76,413V221.25h46.62V413Z"/><path class="cls-12" d="M205.24,413V199.61h46.62V413Z"/><path class="cls-12" d="M263.72,413V227.44h46.62V413Z"/><path class="cls-12" d="M322.21,413V224.35h46.62V413Z"/><path class="cls-12" d="M380.69,413V227.44h46.62V413Z"/><path class="cls-12" d="M439.17,413V230.53h46.62V413Z"/><path class="cls-12" d="M497.65,413V239.81h46.62V413Z"/><path class="cls-12" d="M556.13,413V233.62h46.62V413Z"/><path class="cls-12" d="M614.61,413V230.53h46.62V413Z"/><path class="cls-13" d="M29.8,246V174.87H76.42V246Z"/><path class="cls-13" d="M88.28,246V174.87H134.9V246Z"/><path class="cls-13" d="M146.76,221.25V174.87h46.62v46.38Z"/><path class="cls-13" d="M205.24,199.61v-40.2h46.62v40.2Z"/><path class="cls-13" d="M263.72,227.44V171.78h46.62v55.66Z"/><path class="cls-13" d="M322.21,224.35V171.78h46.62v52.57Z"/><path class="cls-13" d="M380.69,227.44V165.59h46.62v61.85Z"/><path class="cls-13" d="M439.17,230.53v-68h46.62v68Z"/><path class="cls-13" d="M497.65,239.81v-68h46.62v68Z"/><path class="cls-13" d="M556.13,233.62V168.69h46.62v64.93Z"/><path class="cls-13" d="M614.61,230.53v-68h46.62v68Z"/><path class="cls-14" d="M29.8,174.87V147H76.42v27.83Z"/><path class="cls-14" d="M88.28,174.87V147H134.9v27.83Z"/><path class="cls-14" d="M146.76,174.87V144h46.62v30.92Z"/><path class="cls-14" d="M205.24,159.41V137.76h46.62v21.65Z"/><path class="cls-14" d="M263.72,171.78V144h46.62v27.83Z"/><path class="cls-14" d="M322.21,171.78V140.86h46.62v30.92Z"/><path class="cls-14" d="M380.69,165.59V137.76h46.62v27.83Z"/><path class="cls-14" d="M439.17,162.5V137.76h46.62V162.5Z"/><path class="cls-14" d="M497.65,171.78v-34h46.62v34Z"/><path class="cls-14" d="M556.13,168.69V137.76h46.62v30.93Z"/><path class="cls-14" d="M614.61,162.5V131.58h46.62V162.5Z"/><path class="cls-15" d="M29.8,147V122.3H76.42V147Z"/><path class="cls-15" d="M88.28,147V122.3H134.9V147Z"/><path class="cls-15" d="M146.76,144V122.3h46.62V144Z"/><path class="cls-15" d="M205.24,137.76V119.21h46.62v18.55Z"/><path class="cls-15" d="M263.72,144V122.3h46.62V144Z"/><path class="cls-15" d="M322.21,140.86V122.3h46.62v18.56Z"/><path class="cls-15" d="M380.69,137.76V119.21h46.62v18.55Z"/><path class="cls-15" d="M439.17,137.76V119.21h46.62v18.55Z"/><path class="cls-15" d="M497.65,137.76V119.21h46.62v18.55Z"/><path class="cls-15" d="M556.13,137.76V119.21h46.62v18.55Z"/><path class="cls-15" d="M614.61,131.58V116.12h46.62v15.46Z"/><path class="cls-16" d="M29.8,122.3V103.75H76.42V122.3Z"/><path class="cls-16" d="M88.28,122.3V103.75H134.9V122.3Z"/><path class="cls-16" d="M146.76,122.3V103.75h46.62V122.3Z"/><path class="cls-16" d="M205.24,119.21V103.75h46.62v15.46Z"/><path class="cls-16" d="M263.72,122.3V103.75h46.62V122.3Z"/><path class="cls-16" d="M322.21,122.3V103.75h46.62V122.3Z"/><path class="cls-16" d="M380.69,119.21V103.75h46.62v15.46Z"/><path class="cls-16" d="M439.17,119.21V103.75h46.62v15.46Z"/><path class="cls-16" d="M497.65,119.21V103.75h46.62v15.46Z"/><path class="cls-16" d="M556.13,119.21V103.75h46.62v15.46Z"/><path class="cls-16" d="M614.61,116.12V103.75h46.62v12.37Z"/><rect class="cls-1" y="78.75" width="94.61" height="17"/><g id="legend" class="cls-2"><text class="cls-17" transform="translate(28 92.75)">北美</text></g><rect class="cls-12" y="82.75" width="20" height="10"/><rect class="cls-1" x="126.61" y="78.75" width="62.81" height="17"/><g id="legend-2" data-name="legend" class="cls-2"><text class="cls-17" transform="translate(116.61 92.75)">中国</text></g><rect class="cls-13" x="88.61" y="82.75" width="20" height="10"/><rect class="cls-1" x="221.42" y="78.75" width="97.67" height="17"/><g id="legend-3" data-name="legend" class="cls-2"><text class="cls-17" transform="translate(211.42 92.75)">亚太</text></g><rect class="cls-14" x="183.42" y="82.75" width="20" height="10"/><rect class="cls-1" x="351.09" y="78.75" width="65.59" height="17"/><g id="legend-4" data-name="legend" class="cls-2"><text class="cls-17" transform="translate(301.09 92.75)">欧洲、中东与非洲</text></g><rect class="cls-15" x="273.09" y="82.75" width="20" height="10"/><rect class="cls-1" x="448.69" y="78.75" width="64.45" height="17"/><g id="legend-5" data-name="legend" class="cls-2"><text class="cls-17" transform="translate(484.69 92.75)">日本</text></g><rect class="cls-16" x="456.69" y="82.75" width="20" height="10"/><line id="zero" class="cls-10" x1="25" y1="412.97" x2="666.03" y2="412.97"/><g id="source" class="cls-2"><text class="cls-17" transform="translate(0 477.46)">来源：台积电</text></g></svg>